{"accessors" : [{"bufferView" : 0, "byteOffset" : 0, "componentType" : 5123, "count" : 38388, "type" : "SCALAR", "max" : [6399], "min" : [0]}, {"bufferView" : 1, "byteOffset" : 0, "componentType" : 5126, "count" : 6400, "type" : "VEC3", "max" : [1.1728650331497192, 2.0853400230407715, 0.9647911190986633], "min" : [-1.112287998199463, -2.5174570083618164, -0.9540348649024963], "name" : "POSITION"}, {"bufferView" : 1, "byteOffset" : 12, "componentType" : 5126, "count" : 6400, "type" : "VEC3", "max" : [0, 1, 0], "min" : [0, 1, 0], "name" : "NORMAL"}], "asset" : {"generator" : "Aspose.3D 25.3.0", "version" : "2.0"}, "buffers" : [{"uri" : "data:application/octet-stream;base64,", "byteLength" : 230384}], "bufferViews" : [{"buffer" : 0, "byteOffset" : 0, "byteLength" : 76776, "target" : 34963}, {"buffer" : 0, "byteOffset" : 76780, "byteLength" : 153600, "byteStride" : 24, "target" : 34962}], "meshes" : [{"primitives" : [{"attributes" : {"POSITION" : 1, "NORMAL" : 2}, "indices" : 0, "mode" : 4}], "name" : ""}], "nodes" : [{"mesh" : 0, "name" : ""}], "scene" : 0, "scenes" : [{"nodes" : [0]}]}